<?xml version="1.0" encoding="utf-8" ?>
<svg baseProfile="tiny" height="500" version="1.2" width="500" xmlns="http://www.w3.org/2000/svg" xmlns:ev="http://www.w3.org/2001/xml-events" xmlns:xlink="http://www.w3.org/1999/xlink"><defs /><line fill="none" stroke="black" stroke-width="0.5" x1="0" x2="0" y1="0" y2="50" /><line fill="none" stroke="black" stroke-width="0.5" x1="0" x2="0" y1="50" y2="100" /><line fill="none" stroke="black" stroke-width="0.5" x1="0" x2="0" y1="100" y2="150" /><line fill="none" stroke="black" stroke-width="0.5" x1="0" x2="0" y1="150" y2="200" /><line fill="none" stroke="black" stroke-width="0.5" x1="0" x2="0" y1="200" y2="250" /><line fill="none" stroke="black" stroke-width="0.5" x1="0" x2="0" y1="250" y2="300" /><line fill="none" stroke="black" stroke-width="0.5" x1="0" x2="0" y1="300" y2="350" /><line fill="none" stroke="black" stroke-width="0.5" x1="0" x2="0" y1="350" y2="400" /><line fill="none" stroke="black" stroke-width="0.5" x1="0" x2="0" y1="400" y2="450" /><line fill="none" stroke="black" stroke-width="0.5" x1="50" x2="50" y1="0" y2="50" /><line fill="none" stroke="black" stroke-width="0.5" x1="50" x2="50" y1="50" y2="100" /><line fill="none" stroke="black" stroke-width="0.5" x1="50" x2="50" y1="100" y2="150" /><line fill="none" stroke="black" stroke-width="0.5" x1="50" x2="50" y1="150" y2="200" /><line fill="none" stroke="black" stroke-width="0.5" x1="50" x2="50" y1="200" y2="250" /><line fill="none" stroke="black" stroke-width="0.5" x1="50" x2="50" y1="250" y2="300" /><line fill="none" stroke="black" stroke-width="0.5" x1="50" x2="50" y1="300" y2="350" /><line fill="none" stroke="black" stroke-width="0.5" x1="50" x2="50" y1="350" y2="400" /><line fill="none" stroke="black" stroke-width="0.5" x1="50" x2="50" y1="400" y2="450" /><line fill="none" stroke="black" stroke-width="0.5" x1="100" x2="100" y1="0" y2="50" /><line fill="none" stroke="black" stroke-width="0.5" x1="100" x2="100" y1="50" y2="100" /><line fill="none" stroke="black" stroke-width="0.5" x1="100" x2="100" y1="100" y2="150" /><line fill="none" stroke="black" stroke-width="0.5" x1="100" x2="100" y1="150" y2="200" /><line fill="none" stroke="black" stroke-width="0.5" x1="100" x2="100" y1="200" y2="250" /><line fill="none" stroke="black" stroke-width="0.5" x1="100" x2="100" y1="250" y2="300" /><line fill="none" stroke="black" stroke-width="0.5" x1="100" x2="100" y1="300" y2="350" /><line fill="none" stroke="black" stroke-width="0.5" x1="100" x2="100" y1="350" y2="400" /><line fill="none" stroke="black" stroke-width="0.5" x1="100" x2="100" y1="400" y2="450" /><line fill="none" stroke="black" stroke-width="0.5" x1="150" x2="150" y1="0" y2="50" /><line fill="none" stroke="black" stroke-width="0.5" x1="150" x2="150" y1="50" y2="100" /><line fill="none" stroke="black" stroke-width="0.5" x1="150" x2="150" y1="100" y2="150" /><line fill="none" stroke="black" stroke-width="0.5" x1="150" x2="150" y1="150" y2="200" /><line fill="none" stroke="black" stroke-width="0.5" x1="150" x2="150" y1="200" y2="250" /><line fill="none" stroke="black" stroke-width="0.5" x1="150" x2="150" y1="250" y2="300" /><line fill="none" stroke="black" stroke-width="0.5" x1="150" x2="150" y1="300" y2="350" /><line fill="none" stroke="black" stroke-width="0.5" x1="150" x2="150" y1="350" y2="400" /><line fill="none" stroke="black" stroke-width="0.5" x1="150" x2="150" y1="400" y2="450" /><line fill="none" stroke="black" stroke-width="0.5" x1="200" x2="200" y1="0" y2="50" /><line fill="none" stroke="black" stroke-width="0.5" x1="200" x2="200" y1="50" y2="100" /><line fill="none" stroke="black" stroke-width="0.5" x1="200" x2="200" y1="100" y2="150" /><line fill="none" stroke="black" stroke-width="0.5" x1="200" x2="200" y1="150" y2="200" /><line fill="none" stroke="black" stroke-width="0.5" x1="200" x2="200" y1="200" y2="250" /><line fill="none" stroke="black" stroke-width="0.5" x1="200" x2="200" y1="250" y2="300" /><line fill="none" stroke="black" stroke-width="0.5" x1="200" x2="200" y1="300" y2="350" /><line fill="none" stroke="black" stroke-width="0.5" x1="200" x2="200" y1="350" y2="400" /><line fill="none" stroke="black" stroke-width="0.5" x1="200" x2="200" y1="400" y2="450" /><line fill="none" stroke="black" stroke-width="0.5" x1="250" x2="250" y1="0" y2="50" /><line fill="none" stroke="black" stroke-width="0.5" x1="250" x2="250" y1="50" y2="100" /><line fill="none" stroke="black" stroke-width="0.5" x1="250" x2="250" y1="100" y2="150" /><line fill="none" stroke="black" stroke-width="0.5" x1="250" x2="250" y1="150" y2="200" /><line fill="none" stroke="black" stroke-width="0.5" x1="250" x2="250" y1="200" y2="250" /><line fill="none" stroke="black" stroke-width="0.5" x1="250" x2="250" y1="250" y2="300" /><line fill="none" stroke="black" stroke-width="0.5" x1="250" x2="250" y1="300" y2="350" /><line fill="none" stroke="black" stroke-width="0.5" x1="250" x2="250" y1="350" y2="400" /><line fill="none" stroke="black" stroke-width="0.5" x1="250" x2="250" y1="400" y2="450" /><line fill="none" stroke="black" stroke-width="0.5" x1="300" x2="300" y1="0" y2="50" /><line fill="none" stroke="black" stroke-width="0.5" x1="300" x2="300" y1="50" y2="100" /><line fill="none" stroke="black" stroke-width="0.5" x1="300" x2="300" y1="100" y2="150" /><line fill="none" stroke="black" stroke-width="0.5" x1="300" x2="300" y1="150" y2="200" /><line fill="none" stroke="black" stroke-width="0.5" x1="300" x2="300" y1="200" y2="250" /><line fill="none" stroke="black" stroke-width="0.5" x1="300" x2="300" y1="250" y2="300" /><line fill="none" stroke="black" stroke-width="0.5" x1="300" x2="300" y1="300" y2="350" /><line fill="none" stroke="black" stroke-width="0.5" x1="300" x2="300" y1="350" y2="400" /><line fill="none" stroke="black" stroke-width="0.5" x1="300" x2="300" y1="400" y2="450" /><line fill="none" stroke="black" stroke-width="0.5" x1="350" x2="350" y1="0" y2="50" /><line fill="none" stroke="black" stroke-width="0.5" x1="350" x2="350" y1="50" y2="100" /><line fill="none" stroke="black" stroke-width="0.5" x1="350" x2="350" y1="100" y2="150" /><line fill="none" stroke="black" stroke-width="0.5" x1="350" x2="350" y1="150" y2="200" /><line fill="none" stroke="black" stroke-width="0.5" x1="350" x2="350" y1="200" y2="250" /><line fill="none" stroke="black" stroke-width="0.5" x1="350" x2="350" y1="250" y2="300" /><line fill="none" stroke="black" stroke-width="0.5" x1="350" x2="350" y1="300" y2="350" /><line fill="none" stroke="black" stroke-width="0.5" x1="350" x2="350" y1="350" y2="400" /><line fill="none" stroke="black" stroke-width="0.5" x1="350" x2="350" y1="400" y2="450" /><line fill="none" stroke="black" stroke-width="0.5" x1="400" x2="400" y1="0" y2="50" /><line fill="none" stroke="black" stroke-width="0.5" x1="400" x2="400" y1="50" y2="100" /><line fill="none" stroke="black" stroke-width="0.5" x1="400" x2="400" y1="100" y2="150" /><line fill="none" stroke="black" stroke-width="0.5" x1="400" x2="400" y1="150" y2="200" /><line fill="none" stroke="black" stroke-width="0.5" x1="400" x2="400" y1="200" y2="250" /><line fill="none" stroke="black" stroke-width="0.5" x1="400" x2="400" y1="250" y2="300" /><line fill="none" stroke="black" stroke-width="0.5" x1="400" x2="400" y1="300" y2="350" /><line fill="none" stroke="black" stroke-width="0.5" x1="400" x2="400" y1="350" y2="400" /><line fill="none" stroke="black" stroke-width="0.5" x1="400" x2="400" y1="400" y2="450" /><line fill="none" stroke="black" stroke-width="0.5" x1="450" x2="450" y1="0" y2="50" /><line fill="none" stroke="black" stroke-width="0.5" x1="450" x2="450" y1="50" y2="100" /><line fill="none" stroke="black" stroke-width="0.5" x1="450" x2="450" y1="100" y2="150" /><line fill="none" stroke="black" stroke-width="0.5" x1="450" x2="450" y1="150" y2="200" /><line fill="none" stroke="black" stroke-width="0.5" x1="450" x2="450" y1="200" y2="250" /><line fill="none" stroke="black" stroke-width="0.5" x1="450" x2="450" y1="250" y2="300" /><line fill="none" stroke="black" stroke-width="0.5" x1="450" x2="450" y1="300" y2="350" /><line fill="none" stroke="black" stroke-width="0.5" x1="450" x2="450" y1="350" y2="400" /><line fill="none" stroke="black" stroke-width="0.5" x1="450" x2="450" y1="400" y2="450" /></svg>