<?xml version="1.0" encoding="utf-8" ?>
<svg baseProfile="tiny" height="500" version="1.2" width="500" xmlns="http://www.w3.org/2000/svg" xmlns:ev="http://www.w3.org/2001/xml-events" xmlns:xlink="http://www.w3.org/1999/xlink"><defs /><line fill="none" stroke="black" stroke-width="0.5" x1="0" x2="0" y1="0" y2="1" /><line fill="none" stroke="black" stroke-width="0.5" x1="0" x2="0" y1="1" y2="2" /><line fill="none" stroke="black" stroke-width="0.5" x1="0" x2="0" y1="2" y2="3" /><line fill="none" stroke="black" stroke-width="0.5" x1="0" x2="0" y1="3" y2="4" /><line fill="none" stroke="black" stroke-width="0.5" x1="0" x2="0" y1="4" y2="5" /><line fill="none" stroke="black" stroke-width="0.5" x1="0" x2="0" y1="5" y2="6" /><line fill="none" stroke="black" stroke-width="0.5" x1="0" x2="0" y1="6" y2="7" /><line fill="none" stroke="black" stroke-width="0.5" x1="0" x2="0" y1="7" y2="8" /><line fill="none" stroke="black" stroke-width="0.5" x1="0" x2="0" y1="8" y2="9" /><line fill="none" stroke="black" stroke-width="0.5" x1="1" x2="1" y1="0" y2="1" /><line fill="none" stroke="black" stroke-width="0.5" x1="1" x2="1" y1="1" y2="2" /><line fill="none" stroke="black" stroke-width="0.5" x1="1" x2="1" y1="2" y2="3" /><line fill="none" stroke="black" stroke-width="0.5" x1="1" x2="1" y1="3" y2="4" /><line fill="none" stroke="black" stroke-width="0.5" x1="1" x2="1" y1="4" y2="5" /><line fill="none" stroke="black" stroke-width="0.5" x1="1" x2="1" y1="5" y2="6" /><line fill="none" stroke="black" stroke-width="0.5" x1="1" x2="1" y1="6" y2="7" /><line fill="none" stroke="black" stroke-width="0.5" x1="1" x2="1" y1="7" y2="8" /><line fill="none" stroke="black" stroke-width="0.5" x1="1" x2="1" y1="8" y2="9" /><line fill="none" stroke="black" stroke-width="0.5" x1="2" x2="2" y1="0" y2="1" /><line fill="none" stroke="black" stroke-width="0.5" x1="2" x2="2" y1="1" y2="2" /><line fill="none" stroke="black" stroke-width="0.5" x1="2" x2="2" y1="2" y2="3" /><line fill="none" stroke="black" stroke-width="0.5" x1="2" x2="2" y1="3" y2="4" /><line fill="none" stroke="black" stroke-width="0.5" x1="2" x2="2" y1="4" y2="5" /><line fill="none" stroke="black" stroke-width="0.5" x1="2" x2="2" y1="5" y2="6" /><line fill="none" stroke="black" stroke-width="0.5" x1="2" x2="2" y1="6" y2="7" /><line fill="none" stroke="black" stroke-width="0.5" x1="2" x2="2" y1="7" y2="8" /><line fill="none" stroke="black" stroke-width="0.5" x1="2" x2="2" y1="8" y2="9" /><line fill="none" stroke="black" stroke-width="0.5" x1="3" x2="3" y1="0" y2="1" /><line fill="none" stroke="black" stroke-width="0.5" x1="3" x2="3" y1="1" y2="2" /><line fill="none" stroke="black" stroke-width="0.5" x1="3" x2="3" y1="2" y2="3" /><line fill="none" stroke="black" stroke-width="0.5" x1="3" x2="3" y1="3" y2="4" /><line fill="none" stroke="black" stroke-width="0.5" x1="3" x2="3" y1="4" y2="5" /><line fill="none" stroke="black" stroke-width="0.5" x1="3" x2="3" y1="5" y2="6" /><line fill="none" stroke="black" stroke-width="0.5" x1="3" x2="3" y1="6" y2="7" /><line fill="none" stroke="black" stroke-width="0.5" x1="3" x2="3" y1="7" y2="8" /><line fill="none" stroke="black" stroke-width="0.5" x1="3" x2="3" y1="8" y2="9" /><line fill="none" stroke="black" stroke-width="0.5" x1="4" x2="4" y1="0" y2="1" /><line fill="none" stroke="black" stroke-width="0.5" x1="4" x2="4" y1="1" y2="2" /><line fill="none" stroke="black" stroke-width="0.5" x1="4" x2="4" y1="2" y2="3" /><line fill="none" stroke="black" stroke-width="0.5" x1="4" x2="4" y1="3" y2="4" /><line fill="none" stroke="black" stroke-width="0.5" x1="4" x2="4" y1="4" y2="5" /><line fill="none" stroke="black" stroke-width="0.5" x1="4" x2="4" y1="5" y2="6" /><line fill="none" stroke="black" stroke-width="0.5" x1="4" x2="4" y1="6" y2="7" /><line fill="none" stroke="black" stroke-width="0.5" x1="4" x2="4" y1="7" y2="8" /><line fill="none" stroke="black" stroke-width="0.5" x1="4" x2="4" y1="8" y2="9" /><line fill="none" stroke="black" stroke-width="0.5" x1="5" x2="5" y1="0" y2="1" /><line fill="none" stroke="black" stroke-width="0.5" x1="5" x2="5" y1="1" y2="2" /><line fill="none" stroke="black" stroke-width="0.5" x1="5" x2="5" y1="2" y2="3" /><line fill="none" stroke="black" stroke-width="0.5" x1="5" x2="5" y1="3" y2="4" /><line fill="none" stroke="black" stroke-width="0.5" x1="5" x2="5" y1="4" y2="5" /><line fill="none" stroke="black" stroke-width="0.5" x1="5" x2="5" y1="5" y2="6" /><line fill="none" stroke="black" stroke-width="0.5" x1="5" x2="5" y1="6" y2="7" /><line fill="none" stroke="black" stroke-width="0.5" x1="5" x2="5" y1="7" y2="8" /><line fill="none" stroke="black" stroke-width="0.5" x1="5" x2="5" y1="8" y2="9" /><line fill="none" stroke="black" stroke-width="0.5" x1="6" x2="6" y1="0" y2="1" /><line fill="none" stroke="black" stroke-width="0.5" x1="6" x2="6" y1="1" y2="2" /><line fill="none" stroke="black" stroke-width="0.5" x1="6" x2="6" y1="2" y2="3" /><line fill="none" stroke="black" stroke-width="0.5" x1="6" x2="6" y1="3" y2="4" /><line fill="none" stroke="black" stroke-width="0.5" x1="6" x2="6" y1="4" y2="5" /><line fill="none" stroke="black" stroke-width="0.5" x1="6" x2="6" y1="5" y2="6" /><line fill="none" stroke="black" stroke-width="0.5" x1="6" x2="6" y1="6" y2="7" /><line fill="none" stroke="black" stroke-width="0.5" x1="6" x2="6" y1="7" y2="8" /><line fill="none" stroke="black" stroke-width="0.5" x1="6" x2="6" y1="8" y2="9" /><line fill="none" stroke="black" stroke-width="0.5" x1="7" x2="7" y1="0" y2="1" /><line fill="none" stroke="black" stroke-width="0.5" x1="7" x2="7" y1="1" y2="2" /><line fill="none" stroke="black" stroke-width="0.5" x1="7" x2="7" y1="2" y2="3" /><line fill="none" stroke="black" stroke-width="0.5" x1="7" x2="7" y1="3" y2="4" /><line fill="none" stroke="black" stroke-width="0.5" x1="7" x2="7" y1="4" y2="5" /><line fill="none" stroke="black" stroke-width="0.5" x1="7" x2="7" y1="5" y2="6" /><line fill="none" stroke="black" stroke-width="0.5" x1="7" x2="7" y1="6" y2="7" /><line fill="none" stroke="black" stroke-width="0.5" x1="7" x2="7" y1="7" y2="8" /><line fill="none" stroke="black" stroke-width="0.5" x1="7" x2="7" y1="8" y2="9" /><line fill="none" stroke="black" stroke-width="0.5" x1="8" x2="8" y1="0" y2="1" /><line fill="none" stroke="black" stroke-width="0.5" x1="8" x2="8" y1="1" y2="2" /><line fill="none" stroke="black" stroke-width="0.5" x1="8" x2="8" y1="2" y2="3" /><line fill="none" stroke="black" stroke-width="0.5" x1="8" x2="8" y1="3" y2="4" /><line fill="none" stroke="black" stroke-width="0.5" x1="8" x2="8" y1="4" y2="5" /><line fill="none" stroke="black" stroke-width="0.5" x1="8" x2="8" y1="5" y2="6" /><line fill="none" stroke="black" stroke-width="0.5" x1="8" x2="8" y1="6" y2="7" /><line fill="none" stroke="black" stroke-width="0.5" x1="8" x2="8" y1="7" y2="8" /><line fill="none" stroke="black" stroke-width="0.5" x1="8" x2="8" y1="8" y2="9" /><line fill="none" stroke="black" stroke-width="0.5" x1="9" x2="9" y1="0" y2="1" /><line fill="none" stroke="black" stroke-width="0.5" x1="9" x2="9" y1="1" y2="2" /><line fill="none" stroke="black" stroke-width="0.5" x1="9" x2="9" y1="2" y2="3" /><line fill="none" stroke="black" stroke-width="0.5" x1="9" x2="9" y1="3" y2="4" /><line fill="none" stroke="black" stroke-width="0.5" x1="9" x2="9" y1="4" y2="5" /><line fill="none" stroke="black" stroke-width="0.5" x1="9" x2="9" y1="5" y2="6" /><line fill="none" stroke="black" stroke-width="0.5" x1="9" x2="9" y1="6" y2="7" /><line fill="none" stroke="black" stroke-width="0.5" x1="9" x2="9" y1="7" y2="8" /><line fill="none" stroke="black" stroke-width="0.5" x1="9" x2="9" y1="8" y2="9" /></svg>