<?xml version="1.0" encoding="utf-8" ?>
<svg baseProfile="tiny" height="500" version="1.2" width="700" xmlns="http://www.w3.org/2000/svg" xmlns:ev="http://www.w3.org/2001/xml-events" xmlns:xlink="http://www.w3.org/1999/xlink"><defs /><line stroke="black" stroke-opacity="1.0" stroke-width="0.5" x1="350.0" x2="350.0" y1="470.0" y2="370.0" /><line stroke="black" stroke-opacity="1.0" stroke-width="0.5" x1="350.0" x2="311.646" y1="370.0" y2="299.7934" /><line stroke="black" stroke-opacity="1.0" stroke-width="0.5" x1="311.646" x2="257.7918" y1="299.7934" y2="265.214" /><line stroke="black" stroke-opacity="1.0" stroke-width="0.5" x1="257.7918" x2="206.7201" y1="265.214" y2="261.5923" /><line stroke="black" stroke-opacity="1.0" stroke-width="0.5" x1="206.7201" x2="169.4752" y1="261.5923" y2="278.6377" /><line stroke="black" stroke-opacity="1.0" stroke-width="0.5" x1="206.7201" x2="172.2534" y1="261.5923" y2="239.4615" /><line stroke="black" stroke-opacity="1.0" stroke-width="0.5" x1="257.7918" x2="233.2452" y1="265.214" y2="220.2818" /><line stroke="black" stroke-opacity="1.0" stroke-width="0.5" x1="233.2452" x2="198.7786" y1="220.2818" y2="198.151" /><line stroke="black" stroke-opacity="1.0" stroke-width="0.5" x1="233.2452" x2="233.2452" y1="220.2818" y2="179.3218" /><line stroke="black" stroke-opacity="1.0" stroke-width="0.5" x1="311.646" x2="311.646" y1="299.7934" y2="235.7934" /><line stroke="black" stroke-opacity="1.0" stroke-width="0.5" x1="311.646" x2="287.0994" y1="235.7934" y2="190.8612" /><line stroke="black" stroke-opacity="1.0" stroke-width="0.5" x1="287.0994" x2="252.6327" y1="190.8612" y2="168.7304" /><line stroke="black" stroke-opacity="1.0" stroke-width="0.5" x1="287.0994" x2="287.0994" y1="190.8612" y2="149.9012" /><line stroke="black" stroke-opacity="1.0" stroke-width="0.5" x1="311.646" x2="336.1925" y1="235.7934" y2="190.8612" /><line stroke="black" stroke-opacity="1.0" stroke-width="0.5" x1="336.1925" x2="336.1925" y1="190.8612" y2="149.9012" /><line stroke="black" stroke-opacity="1.0" stroke-width="0.5" x1="336.1925" x2="370.6592" y1="190.8612" y2="168.7304" /><line stroke="black" stroke-opacity="1.0" stroke-width="0.5" x1="350.0" x2="388.354" y1="370.0" y2="299.7934" /><line stroke="black" stroke-opacity="1.0" stroke-width="0.5" x1="388.354" x2="388.354" y1="299.7934" y2="235.7934" /><line stroke="black" stroke-opacity="1.0" stroke-width="0.5" x1="388.354" x2="363.8075" y1="235.7934" y2="190.8612" /><line stroke="black" stroke-opacity="1.0" stroke-width="0.5" x1="363.8075" x2="329.3408" y1="190.8612" y2="168.7304" /><line stroke="black" stroke-opacity="1.0" stroke-width="0.5" x1="363.8075" x2="363.8075" y1="190.8612" y2="149.9012" /><line stroke="black" stroke-opacity="1.0" stroke-width="0.5" x1="388.354" x2="412.9006" y1="235.7934" y2="190.8612" /><line stroke="black" stroke-opacity="1.0" stroke-width="0.5" x1="412.9006" x2="412.9006" y1="190.8612" y2="149.9012" /><line stroke="black" stroke-opacity="1.0" stroke-width="0.5" x1="412.9006" x2="447.3673" y1="190.8612" y2="168.7304" /><line stroke="black" stroke-opacity="1.0" stroke-width="0.5" x1="388.354" x2="442.2082" y1="299.7934" y2="265.214" /><line stroke="black" stroke-opacity="1.0" stroke-width="0.5" x1="442.2082" x2="466.7548" y1="265.214" y2="220.2818" /><line stroke="black" stroke-opacity="1.0" stroke-width="0.5" x1="466.7548" x2="466.7548" y1="220.2818" y2="179.3218" /><line stroke="black" stroke-opacity="1.0" stroke-width="0.5" x1="466.7548" x2="501.2214" y1="220.2818" y2="198.151" /><line stroke="black" stroke-opacity="1.0" stroke-width="0.5" x1="442.2082" x2="493.2799" y1="265.214" y2="261.5923" /><line stroke="black" stroke-opacity="1.0" stroke-width="0.5" x1="493.2799" x2="527.7466" y1="261.5923" y2="239.4615" /><line stroke="black" stroke-opacity="1.0" stroke-width="0.5" x1="493.2799" x2="530.5248" y1="261.5923" y2="278.6377" /></svg>