<?xml version="1.0" encoding="utf-8" ?>
<svg baseProfile="tiny" height="500" version="1.2" width="700" xmlns="http://www.w3.org/2000/svg" xmlns:ev="http://www.w3.org/2001/xml-events" xmlns:xlink="http://www.w3.org/1999/xlink"><defs /><line stroke="black" stroke-opacity="1.0" stroke-width="0.5" x1="350.0" x2="350.0" y1="470.0" y2="370.0" /><line stroke="black" stroke-opacity="1.0" stroke-width="0.5" x1="350.0" x2="311.646" y1="370.0" y2="299.7934" /><line stroke="black" stroke-opacity="1.0" stroke-width="0.5" x1="311.646" x2="257.7918" y1="299.7934" y2="265.214" /><line stroke="black" stroke-opacity="1.0" stroke-width="0.5" x1="257.7918" x2="206.7201" y1="265.214" y2="261.5923" /><line stroke="black" stroke-opacity="1.0" stroke-width="0.5" x1="206.7201" x2="169.4752" y1="261.5923" y2="278.6377" /><line stroke="black" stroke-opacity="1.0" stroke-width="0.5" x1="169.4752" x2="149.8645" y1="278.6377" y2="304.8896" /><line stroke="black" stroke-opacity="1.0" stroke-width="0.5" x1="149.8645" x2="146.1651" y1="304.8896" y2="330.8416" /><line stroke="black" stroke-opacity="1.0" stroke-width="0.5" x1="146.1651" x2="153.5216" y1="330.8416" y2="350.4805" /><line stroke="black" stroke-opacity="1.0" stroke-width="0.5" x1="146.1651" x2="133.6143" y1="330.8416" y2="347.6428" /><line stroke="black" stroke-opacity="1.0" stroke-width="0.5" x1="149.8645" x2="126.0278" y1="304.8896" y2="315.7986" /><line stroke="black" stroke-opacity="1.0" stroke-width="0.5" x1="126.0278" x2="113.477" y1="315.7986" y2="332.5998" /><line stroke="black" stroke-opacity="1.0" stroke-width="0.5" x1="126.0278" x2="105.1088" y1="315.7986" y2="314.3151" /><line stroke="black" stroke-opacity="1.0" stroke-width="0.5" x1="169.4752" x2="136.7893" y1="278.6377" y2="276.3198" /><line stroke="black" stroke-opacity="1.0" stroke-width="0.5" x1="136.7893" x2="112.9526" y1="276.3198" y2="287.2288" /><line stroke="black" stroke-opacity="1.0" stroke-width="0.5" x1="112.9526" x2="100.4018" y1="287.2288" y2="304.03" /><line stroke="black" stroke-opacity="1.0" stroke-width="0.5" x1="112.9526" x2="92.0337" y1="287.2288" y2="285.7453" /><line stroke="black" stroke-opacity="1.0" stroke-width="0.5" x1="136.7893" x2="114.7307" y1="276.3198" y2="262.1561" /><line stroke="black" stroke-opacity="1.0" stroke-width="0.5" x1="114.7307" x2="93.8117" y1="262.1561" y2="260.6726" /><line stroke="black" stroke-opacity="1.0" stroke-width="0.5" x1="114.7307" x2="104.6764" y1="262.1561" y2="243.7518" /><line stroke="black" stroke-opacity="1.0" stroke-width="0.5" x1="206.7201" x2="172.2534" y1="261.5923" y2="239.4615" /><line stroke="black" stroke-opacity="1.0" stroke-width="0.5" x1="172.2534" x2="139.5675" y1="239.4615" y2="237.1436" /><line stroke="black" stroke-opacity="1.0" stroke-width="0.5" x1="139.5675" x2="115.7308" y1="237.1436" y2="248.0526" /><line stroke="black" stroke-opacity="1.0" stroke-width="0.5" x1="115.7308" x2="103.1799" y1="248.0526" y2="264.8538" /><line stroke="black" stroke-opacity="1.0" stroke-width="0.5" x1="115.7308" x2="94.8118" y1="248.0526" y2="246.5692" /><line stroke="black" stroke-opacity="1.0" stroke-width="0.5" x1="139.5675" x2="117.5088" y1="237.1436" y2="222.9799" /><line stroke="black" stroke-opacity="1.0" stroke-width="0.5" x1="117.5088" x2="96.5899" y1="222.9799" y2="221.4964" /><line stroke="black" stroke-opacity="1.0" stroke-width="0.5" x1="117.5088" x2="107.4546" y1="222.9799" y2="204.5757" /><line stroke="black" stroke-opacity="1.0" stroke-width="0.5" x1="172.2534" x2="156.5436" y1="239.4615" y2="210.7049" /><line stroke="black" stroke-opacity="1.0" stroke-width="0.5" x1="156.5436" x2="134.4849" y1="210.7049" y2="196.5412" /><line stroke="black" stroke-opacity="1.0" stroke-width="0.5" x1="134.4849" x2="113.566" y1="196.5412" y2="195.0577" /><line stroke="black" stroke-opacity="1.0" stroke-width="0.5" x1="134.4849" x2="124.4307" y1="196.5412" y2="178.137" /><line stroke="black" stroke-opacity="1.0" stroke-width="0.5" x1="156.5436" x2="156.5436" y1="210.7049" y2="184.4905" /><line stroke="black" stroke-opacity="1.0" stroke-width="0.5" x1="156.5436" x2="146.4893" y1="184.4905" y2="166.0863" /><line stroke="black" stroke-opacity="1.0" stroke-width="0.5" x1="156.5436" x2="166.5979" y1="184.4905" y2="166.0863" /><line stroke="black" stroke-opacity="1.0" stroke-width="0.5" x1="257.7918" x2="233.2452" y1="265.214" y2="220.2818" /><line stroke="black" stroke-opacity="1.0" stroke-width="0.5" x1="233.2452" x2="198.7786" y1="220.2818" y2="198.151" /><line stroke="black" stroke-opacity="1.0" stroke-width="0.5" x1="198.7786" x2="166.0927" y1="198.151" y2="195.8331" /><line stroke="black" stroke-opacity="1.0" stroke-width="0.5" x1="166.0927" x2="142.256" y1="195.8331" y2="206.7422" /><line stroke="black" stroke-opacity="1.0" stroke-width="0.5" x1="142.256" x2="129.7051" y1="206.7422" y2="223.5434" /><line stroke="black" stroke-opacity="1.0" stroke-width="0.5" x1="142.256" x2="121.337" y1="206.7422" y2="205.2587" /><line stroke="black" stroke-opacity="1.0" stroke-width="0.5" x1="166.0927" x2="144.034" y1="195.8331" y2="181.6694" /><line stroke="black" stroke-opacity="1.0" stroke-width="0.5" x1="144.034" x2="123.115" y1="181.6694" y2="180.186" /><line stroke="black" stroke-opacity="1.0" stroke-width="0.5" x1="144.034" x2="133.9797" y1="181.6694" y2="163.2652" /><line stroke="black" stroke-opacity="1.0" stroke-width="0.5" x1="198.7786" x2="183.0688" y1="198.151" y2="169.3944" /><line stroke="black" stroke-opacity="1.0" stroke-width="0.5" x1="183.0688" x2="161.0101" y1="169.3944" y2="155.2307" /><line stroke="black" stroke-opacity="1.0" stroke-width="0.5" x1="161.0101" x2="140.0911" y1="155.2307" y2="153.7472" /><line stroke="black" stroke-opacity="1.0" stroke-width="0.5" x1="161.0101" x2="150.9558" y1="155.2307" y2="136.8265" /><line stroke="black" stroke-opacity="1.0" stroke-width="0.5" x1="183.0688" x2="183.0688" y1="169.3944" y2="143.18" /><line stroke="black" stroke-opacity="1.0" stroke-width="0.5" x1="183.0688" x2="173.0145" y1="143.18" y2="124.7758" /><line stroke="black" stroke-opacity="1.0" stroke-width="0.5" x1="183.0688" x2="193.123" y1="143.18" y2="124.7758" /><line stroke="black" stroke-opacity="1.0" stroke-width="0.5" x1="233.2452" x2="233.2452" y1="220.2818" y2="179.3218" /><line stroke="black" stroke-opacity="1.0" stroke-width="0.5" x1="233.2452" x2="217.5354" y1="179.3218" y2="150.5652" /><line stroke="black" stroke-opacity="1.0" stroke-width="0.5" x1="217.5354" x2="195.4768" y1="150.5652" y2="136.4015" /><line stroke="black" stroke-opacity="1.0" stroke-width="0.5" x1="195.4768" x2="174.5578" y1="136.4015" y2="134.918" /><line stroke="black" stroke-opacity="1.0" stroke-width="0.5" x1="195.4768" x2="185.4225" y1="136.4015" y2="117.9973" /><line stroke="black" stroke-opacity="1.0" stroke-width="0.5" x1="217.5354" x2="217.5354" y1="150.5652" y2="124.3508" /><line stroke="black" stroke-opacity="1.0" stroke-width="0.5" x1="217.5354" x2="207.4811" y1="124.3508" y2="105.9466" /><line stroke="black" stroke-opacity="1.0" stroke-width="0.5" x1="217.5354" x2="227.5897" y1="124.3508" y2="105.9466" /><line stroke="black" stroke-opacity="1.0" stroke-width="0.5" x1="233.2452" x2="248.955" y1="179.3218" y2="150.5652" /><line stroke="black" stroke-opacity="1.0" stroke-width="0.5" x1="248.955" x2="248.955" y1="150.5652" y2="124.3508" /><line stroke="black" stroke-opacity="1.0" stroke-width="0.5" x1="248.955" x2="238.9008" y1="124.3508" y2="105.9466" /><line stroke="black" stroke-opacity="1.0" stroke-width="0.5" x1="248.955" x2="259.0093" y1="124.3508" y2="105.9466" /><line stroke="black" stroke-opacity="1.0" stroke-width="0.5" x1="248.955" x2="271.0137" y1="150.5652" y2="136.4015" /><line stroke="black" stroke-opacity="1.0" stroke-width="0.5" x1="271.0137" x2="281.068" y1="136.4015" y2="117.9973" /><line stroke="black" stroke-opacity="1.0" stroke-width="0.5" x1="271.0137" x2="291.9327" y1="136.4015" y2="134.918" /><line stroke="black" stroke-opacity="1.0" stroke-width="0.5" x1="311.646" x2="311.646" y1="299.7934" y2="235.7934" /><line stroke="black" stroke-opacity="1.0" stroke-width="0.5" x1="311.646" x2="287.0994" y1="235.7934" y2="190.8612" /><line stroke="black" stroke-opacity="1.0" stroke-width="0.5" x1="287.0994" x2="252.6327" y1="190.8612" y2="168.7304" /><line stroke="black" stroke-opacity="1.0" stroke-width="0.5" x1="252.6327" x2="219.9468" y1="168.7304" y2="166.4125" /><line stroke="black" stroke-opacity="1.0" stroke-width="0.5" x1="219.9468" x2="196.1101" y1="166.4125" y2="177.3215" /><line stroke="black" stroke-opacity="1.0" stroke-width="0.5" x1="196.1101" x2="183.5592" y1="177.3215" y2="194.1227" /><line stroke="black" stroke-opacity="1.0" stroke-width="0.5" x1="196.1101" x2="175.1911" y1="177.3215" y2="175.838" /><line stroke="black" stroke-opacity="1.0" stroke-width="0.5" x1="219.9468" x2="197.8881" y1="166.4125" y2="152.2488" /><line stroke="black" stroke-opacity="1.0" stroke-width="0.5" x1="197.8881" x2="176.9692" y1="152.2488" y2="150.7653" /><line stroke="black" stroke-opacity="1.0" stroke-width="0.5" x1="197.8881" x2="187.8339" y1="152.2488" y2="133.8445" /><line stroke="black" stroke-opacity="1.0" stroke-width="0.5" x1="252.6327" x2="236.9229" y1="168.7304" y2="139.9738" /><line stroke="black" stroke-opacity="1.0" stroke-width="0.5" x1="236.9229" x2="214.8642" y1="139.9738" y2="125.8101" /><line stroke="black" stroke-opacity="1.0" stroke-width="0.5" x1="214.8642" x2="193.9453" y1="125.8101" y2="124.3266" /><line stroke="black" stroke-opacity="1.0" stroke-width="0.5" x1="214.8642" x2="204.81" y1="125.8101" y2="107.4058" /><line stroke="black" stroke-opacity="1.0" stroke-width="0.5" x1="236.9229" x2="236.9229" y1="139.9738" y2="113.7594" /><line stroke="black" stroke-opacity="1.0" stroke-width="0.5" x1="236.9229" x2="226.8686" y1="113.7594" y2="95.3551" /><line stroke="black" stroke-opacity="1.0" stroke-width="0.5" x1="236.9229" x2="246.9772" y1="113.7594" y2="95.3551" /><line stroke="black" stroke-opacity="1.0" stroke-width="0.5" x1="287.0994" x2="287.0994" y1="190.8612" y2="149.9012" /><line stroke="black" stroke-opacity="1.0" stroke-width="0.5" x1="287.0994" x2="271.3896" y1="149.9012" y2="121.1445" /><line stroke="black" stroke-opacity="1.0" stroke-width="0.5" x1="271.3896" x2="249.3309" y1="121.1445" y2="106.9808" /><line stroke="black" stroke-opacity="1.0" stroke-width="0.5" x1="249.3309" x2="228.4119" y1="106.9808" y2="105.4974" /><line stroke="black" stroke-opacity="1.0" stroke-width="0.5" x1="249.3309" x2="239.2766" y1="106.9808" y2="88.5766" /><line stroke="black" stroke-opacity="1.0" stroke-width="0.5" x1="271.3896" x2="271.3896" y1="121.1445" y2="94.9301" /><line stroke="black" stroke-opacity="1.0" stroke-width="0.5" x1="271.3896" x2="261.3353" y1="94.9301" y2="76.5259" /><line stroke="black" stroke-opacity="1.0" stroke-width="0.5" x1="271.3896" x2="281.4438" y1="94.9301" y2="76.5259" /><line stroke="black" stroke-opacity="1.0" stroke-width="0.5" x1="287.0994" x2="302.8092" y1="149.9012" y2="121.1445" /><line stroke="black" stroke-opacity="1.0" stroke-width="0.5" x1="302.8092" x2="302.8092" y1="121.1445" y2="94.9301" /><line stroke="black" stroke-opacity="1.0" stroke-width="0.5" x1="302.8092" x2="292.7549" y1="94.9301" y2="76.5259" /><line stroke="black" stroke-opacity="1.0" stroke-width="0.5" x1="302.8092" x2="312.8635" y1="94.9301" y2="76.5259" /><line stroke="black" stroke-opacity="1.0" stroke-width="0.5" x1="302.8092" x2="324.8678" y1="121.1445" y2="106.9808" /><line stroke="black" stroke-opacity="1.0" stroke-width="0.5" x1="324.8678" x2="334.9221" y1="106.9808" y2="88.5766" /><line stroke="black" stroke-opacity="1.0" stroke-width="0.5" x1="324.8678" x2="345.7868" y1="106.9808" y2="105.4974" /><line stroke="black" stroke-opacity="1.0" stroke-width="0.5" x1="311.646" x2="336.1925" y1="235.7934" y2="190.8612" /><line stroke="black" stroke-opacity="1.0" stroke-width="0.5" x1="336.1925" x2="336.1925" y1="190.8612" y2="149.9012" /><line stroke="black" stroke-opacity="1.0" stroke-width="0.5" x1="336.1925" x2="320.4827" y1="149.9012" y2="121.1445" /><line stroke="black" stroke-opacity="1.0" stroke-width="0.5" x1="320.4827" x2="298.4241" y1="121.1445" y2="106.9808" /><line stroke="black" stroke-opacity="1.0" stroke-width="0.5" x1="298.4241" x2="277.5051" y1="106.9808" y2="105.4974" /><line stroke="black" stroke-opacity="1.0" stroke-width="0.5" x1="298.4241" x2="288.3698" y1="106.9808" y2="88.5766" /><line stroke="black" stroke-opacity="1.0" stroke-width="0.5" x1="320.4827" x2="320.4827" y1="121.1445" y2="94.9301" /><line stroke="black" stroke-opacity="1.0" stroke-width="0.5" x1="320.4827" x2="310.4284" y1="94.9301" y2="76.5259" /><line stroke="black" stroke-opacity="1.0" stroke-width="0.5" x1="320.4827" x2="330.537" y1="94.9301" y2="76.5259" /><line stroke="black" stroke-opacity="1.0" stroke-width="0.5" x1="336.1925" x2="351.9024" y1="149.9012" y2="121.1445" /><line stroke="black" stroke-opacity="1.0" stroke-width="0.5" x1="351.9024" x2="351.9024" y1="121.1445" y2="94.9301" /><line stroke="black" stroke-opacity="1.0" stroke-width="0.5" x1="351.9024" x2="341.8481" y1="94.9301" y2="76.5259" /><line stroke="black" stroke-opacity="1.0" stroke-width="0.5" x1="351.9024" x2="361.9566" y1="94.9301" y2="76.5259" /><line stroke="black" stroke-opacity="1.0" stroke-width="0.5" x1="351.9024" x2="373.961" y1="121.1445" y2="106.9808" /><line stroke="black" stroke-opacity="1.0" stroke-width="0.5" x1="373.961" x2="384.0153" y1="106.9808" y2="88.5766" /><line stroke="black" stroke-opacity="1.0" stroke-width="0.5" x1="373.961" x2="394.88" y1="106.9808" y2="105.4974" /><line stroke="black" stroke-opacity="1.0" stroke-width="0.5" x1="336.1925" x2="370.6592" y1="190.8612" y2="168.7304" /><line stroke="black" stroke-opacity="1.0" stroke-width="0.5" x1="370.6592" x2="386.369" y1="168.7304" y2="139.9738" /><line stroke="black" stroke-opacity="1.0" stroke-width="0.5" x1="386.369" x2="386.369" y1="139.9738" y2="113.7594" /><line stroke="black" stroke-opacity="1.0" stroke-width="0.5" x1="386.369" x2="376.3147" y1="113.7594" y2="95.3551" /><line stroke="black" stroke-opacity="1.0" stroke-width="0.5" x1="386.369" x2="396.4233" y1="113.7594" y2="95.3551" /><line stroke="black" stroke-opacity="1.0" stroke-width="0.5" x1="386.369" x2="408.4277" y1="139.9738" y2="125.8101" /><line stroke="black" stroke-opacity="1.0" stroke-width="0.5" x1="408.4277" x2="418.482" y1="125.8101" y2="107.4058" /><line stroke="black" stroke-opacity="1.0" stroke-width="0.5" x1="408.4277" x2="429.3467" y1="125.8101" y2="124.3266" /><line stroke="black" stroke-opacity="1.0" stroke-width="0.5" x1="370.6592" x2="403.3451" y1="168.7304" y2="166.4125" /><line stroke="black" stroke-opacity="1.0" stroke-width="0.5" x1="403.3451" x2="425.4038" y1="166.4125" y2="152.2488" /><line stroke="black" stroke-opacity="1.0" stroke-width="0.5" x1="425.4038" x2="435.4581" y1="152.2488" y2="133.8445" /><line stroke="black" stroke-opacity="1.0" stroke-width="0.5" x1="425.4038" x2="446.3228" y1="152.2488" y2="150.7653" /><line stroke="black" stroke-opacity="1.0" stroke-width="0.5" x1="403.3451" x2="427.1818" y1="166.4125" y2="177.3215" /><line stroke="black" stroke-opacity="1.0" stroke-width="0.5" x1="427.1818" x2="448.1008" y1="177.3215" y2="175.838" /><line stroke="black" stroke-opacity="1.0" stroke-width="0.5" x1="427.1818" x2="439.7327" y1="177.3215" y2="194.1227" /><line stroke="black" stroke-opacity="1.0" stroke-width="0.5" x1="350.0" x2="388.354" y1="370.0" y2="299.7934" /><line stroke="black" stroke-opacity="1.0" stroke-width="0.5" x1="388.354" x2="388.354" y1="299.7934" y2="235.7934" /><line stroke="black" stroke-opacity="1.0" stroke-width="0.5" x1="388.354" x2="363.8075" y1="235.7934" y2="190.8612" /><line stroke="black" stroke-opacity="1.0" stroke-width="0.5" x1="363.8075" x2="329.3408" y1="190.8612" y2="168.7304" /><line stroke="black" stroke-opacity="1.0" stroke-width="0.5" x1="329.3408" x2="296.6549" y1="168.7304" y2="166.4125" /><line stroke="black" stroke-opacity="1.0" stroke-width="0.5" x1="296.6549" x2="272.8182" y1="166.4125" y2="177.3215" /><line stroke="black" stroke-opacity="1.0" stroke-width="0.5" x1="272.8182" x2="260.2673" y1="177.3215" y2="194.1227" /><line stroke="black" stroke-opacity="1.0" stroke-width="0.5" x1="272.8182" x2="251.8992" y1="177.3215" y2="175.838" /><line stroke="black" stroke-opacity="1.0" stroke-width="0.5" x1="296.6549" x2="274.5962" y1="166.4125" y2="152.2488" /><line stroke="black" stroke-opacity="1.0" stroke-width="0.5" x1="274.5962" x2="253.6772" y1="152.2488" y2="150.7653" /><line stroke="black" stroke-opacity="1.0" stroke-width="0.5" x1="274.5962" x2="264.5419" y1="152.2488" y2="133.8445" /><line stroke="black" stroke-opacity="1.0" stroke-width="0.5" x1="329.3408" x2="313.631" y1="168.7304" y2="139.9738" /><line stroke="black" stroke-opacity="1.0" stroke-width="0.5" x1="313.631" x2="291.5723" y1="139.9738" y2="125.8101" /><line stroke="black" stroke-opacity="1.0" stroke-width="0.5" x1="291.5723" x2="270.6533" y1="125.8101" y2="124.3266" /><line stroke="black" stroke-opacity="1.0" stroke-width="0.5" x1="291.5723" x2="281.518" y1="125.8101" y2="107.4058" /><line stroke="black" stroke-opacity="1.0" stroke-width="0.5" x1="313.631" x2="313.631" y1="139.9738" y2="113.7594" /><line stroke="black" stroke-opacity="1.0" stroke-width="0.5" x1="313.631" x2="303.5767" y1="113.7594" y2="95.3551" /><line stroke="black" stroke-opacity="1.0" stroke-width="0.5" x1="313.631" x2="323.6853" y1="113.7594" y2="95.3551" /><line stroke="black" stroke-opacity="1.0" stroke-width="0.5" x1="363.8075" x2="363.8075" y1="190.8612" y2="149.9012" /><line stroke="black" stroke-opacity="1.0" stroke-width="0.5" x1="363.8075" x2="348.0976" y1="149.9012" y2="121.1445" /><line stroke="black" stroke-opacity="1.0" stroke-width="0.5" x1="348.0976" x2="326.039" y1="121.1445" y2="106.9808" /><line stroke="black" stroke-opacity="1.0" stroke-width="0.5" x1="326.039" x2="305.12" y1="106.9808" y2="105.4974" /><line stroke="black" stroke-opacity="1.0" stroke-width="0.5" x1="326.039" x2="315.9847" y1="106.9808" y2="88.5766" /><line stroke="black" stroke-opacity="1.0" stroke-width="0.5" x1="348.0976" x2="348.0976" y1="121.1445" y2="94.9301" /><line stroke="black" stroke-opacity="1.0" stroke-width="0.5" x1="348.0976" x2="338.0434" y1="94.9301" y2="76.5259" /><line stroke="black" stroke-opacity="1.0" stroke-width="0.5" x1="348.0976" x2="358.1519" y1="94.9301" y2="76.5259" /><line stroke="black" stroke-opacity="1.0" stroke-width="0.5" x1="363.8075" x2="379.5173" y1="149.9012" y2="121.1445" /><line stroke="black" stroke-opacity="1.0" stroke-width="0.5" x1="379.5173" x2="379.5173" y1="121.1445" y2="94.9301" /><line stroke="black" stroke-opacity="1.0" stroke-width="0.5" x1="379.5173" x2="369.463" y1="94.9301" y2="76.5259" /><line stroke="black" stroke-opacity="1.0" stroke-width="0.5" x1="379.5173" x2="389.5716" y1="94.9301" y2="76.5259" /><line stroke="black" stroke-opacity="1.0" stroke-width="0.5" x1="379.5173" x2="401.5759" y1="121.1445" y2="106.9808" /><line stroke="black" stroke-opacity="1.0" stroke-width="0.5" x1="401.5759" x2="411.6302" y1="106.9808" y2="88.5766" /><line stroke="black" stroke-opacity="1.0" stroke-width="0.5" x1="401.5759" x2="422.4949" y1="106.9808" y2="105.4974" /><line stroke="black" stroke-opacity="1.0" stroke-width="0.5" x1="388.354" x2="412.9006" y1="235.7934" y2="190.8612" /><line stroke="black" stroke-opacity="1.0" stroke-width="0.5" x1="412.9006" x2="412.9006" y1="190.8612" y2="149.9012" /><line stroke="black" stroke-opacity="1.0" stroke-width="0.5" x1="412.9006" x2="397.1908" y1="149.9012" y2="121.1445" /><line stroke="black" stroke-opacity="1.0" stroke-width="0.5" x1="397.1908" x2="375.1322" y1="121.1445" y2="106.9808" /><line stroke="black" stroke-opacity="1.0" stroke-width="0.5" x1="375.1322" x2="354.2132" y1="106.9808" y2="105.4974" /><line stroke="black" stroke-opacity="1.0" stroke-width="0.5" x1="375.1322" x2="365.0779" y1="106.9808" y2="88.5766" /><line stroke="black" stroke-opacity="1.0" stroke-width="0.5" x1="397.1908" x2="397.1908" y1="121.1445" y2="94.9301" /><line stroke="black" stroke-opacity="1.0" stroke-width="0.5" x1="397.1908" x2="387.1365" y1="94.9301" y2="76.5259" /><line stroke="black" stroke-opacity="1.0" stroke-width="0.5" x1="397.1908" x2="407.2451" y1="94.9301" y2="76.5259" /><line stroke="black" stroke-opacity="1.0" stroke-width="0.5" x1="412.9006" x2="428.6104" y1="149.9012" y2="121.1445" /><line stroke="black" stroke-opacity="1.0" stroke-width="0.5" x1="428.6104" x2="428.6104" y1="121.1445" y2="94.9301" /><line stroke="black" stroke-opacity="1.0" stroke-width="0.5" x1="428.6104" x2="418.5562" y1="94.9301" y2="76.5259" /><line stroke="black" stroke-opacity="1.0" stroke-width="0.5" x1="428.6104" x2="438.6647" y1="94.9301" y2="76.5259" /><line stroke="black" stroke-opacity="1.0" stroke-width="0.5" x1="428.6104" x2="450.6691" y1="121.1445" y2="106.9808" /><line stroke="black" stroke-opacity="1.0" stroke-width="0.5" x1="450.6691" x2="460.7234" y1="106.9808" y2="88.5766" /><line stroke="black" stroke-opacity="1.0" stroke-width="0.5" x1="450.6691" x2="471.5881" y1="106.9808" y2="105.4974" /><line stroke="black" stroke-opacity="1.0" stroke-width="0.5" x1="412.9006" x2="447.3673" y1="190.8612" y2="168.7304" /><line stroke="black" stroke-opacity="1.0" stroke-width="0.5" x1="447.3673" x2="463.0771" y1="168.7304" y2="139.9738" /><line stroke="black" stroke-opacity="1.0" stroke-width="0.5" x1="463.0771" x2="463.0771" y1="139.9738" y2="113.7594" /><line stroke="black" stroke-opacity="1.0" stroke-width="0.5" x1="463.0771" x2="453.0228" y1="113.7594" y2="95.3551" /><line stroke="black" stroke-opacity="1.0" stroke-width="0.5" x1="463.0771" x2="473.1314" y1="113.7594" y2="95.3551" /><line stroke="black" stroke-opacity="1.0" stroke-width="0.5" x1="463.0771" x2="485.1358" y1="139.9738" y2="125.8101" /><line stroke="black" stroke-opacity="1.0" stroke-width="0.5" x1="485.1358" x2="495.19" y1="125.8101" y2="107.4058" /><line stroke="black" stroke-opacity="1.0" stroke-width="0.5" x1="485.1358" x2="506.0547" y1="125.8101" y2="124.3266" /><line stroke="black" stroke-opacity="1.0" stroke-width="0.5" x1="447.3673" x2="480.0532" y1="168.7304" y2="166.4125" /><line stroke="black" stroke-opacity="1.0" stroke-width="0.5" x1="480.0532" x2="502.1119" y1="166.4125" y2="152.2488" /><line stroke="black" stroke-opacity="1.0" stroke-width="0.5" x1="502.1119" x2="512.1661" y1="152.2488" y2="133.8445" /><line stroke="black" stroke-opacity="1.0" stroke-width="0.5" x1="502.1119" x2="523.0308" y1="152.2488" y2="150.7653" /><line stroke="black" stroke-opacity="1.0" stroke-width="0.5" x1="480.0532" x2="503.8899" y1="166.4125" y2="177.3215" /><line stroke="black" stroke-opacity="1.0" stroke-width="0.5" x1="503.8899" x2="524.8089" y1="177.3215" y2="175.838" /><line stroke="black" stroke-opacity="1.0" stroke-width="0.5" x1="503.8899" x2="516.4408" y1="177.3215" y2="194.1227" /><line stroke="black" stroke-opacity="1.0" stroke-width="0.5" x1="388.354" x2="442.2082" y1="299.7934" y2="265.214" /><line stroke="black" stroke-opacity="1.0" stroke-width="0.5" x1="442.2082" x2="466.7548" y1="265.214" y2="220.2818" /><line stroke="black" stroke-opacity="1.0" stroke-width="0.5" x1="466.7548" x2="466.7548" y1="220.2818" y2="179.3218" /><line stroke="black" stroke-opacity="1.0" stroke-width="0.5" x1="466.7548" x2="451.045" y1="179.3218" y2="150.5652" /><line stroke="black" stroke-opacity="1.0" stroke-width="0.5" x1="451.045" x2="428.9863" y1="150.5652" y2="136.4015" /><line stroke="black" stroke-opacity="1.0" stroke-width="0.5" x1="428.9863" x2="408.0673" y1="136.4015" y2="134.918" /><line stroke="black" stroke-opacity="1.0" stroke-width="0.5" x1="428.9863" x2="418.932" y1="136.4015" y2="117.9973" /><line stroke="black" stroke-opacity="1.0" stroke-width="0.5" x1="451.045" x2="451.045" y1="150.5652" y2="124.3508" /><line stroke="black" stroke-opacity="1.0" stroke-width="0.5" x1="451.045" x2="440.9907" y1="124.3508" y2="105.9466" /><line stroke="black" stroke-opacity="1.0" stroke-width="0.5" x1="451.045" x2="461.0992" y1="124.3508" y2="105.9466" /><line stroke="black" stroke-opacity="1.0" stroke-width="0.5" x1="466.7548" x2="482.4646" y1="179.3218" y2="150.5652" /><line stroke="black" stroke-opacity="1.0" stroke-width="0.5" x1="482.4646" x2="482.4646" y1="150.5652" y2="124.3508" /><line stroke="black" stroke-opacity="1.0" stroke-width="0.5" x1="482.4646" x2="472.4103" y1="124.3508" y2="105.9466" /><line stroke="black" stroke-opacity="1.0" stroke-width="0.5" x1="482.4646" x2="492.5189" y1="124.3508" y2="105.9466" /><line stroke="black" stroke-opacity="1.0" stroke-width="0.5" x1="482.4646" x2="504.5232" y1="150.5652" y2="136.4015" /><line stroke="black" stroke-opacity="1.0" stroke-width="0.5" x1="504.5232" x2="514.5775" y1="136.4015" y2="117.9973" /><line stroke="black" stroke-opacity="1.0" stroke-width="0.5" x1="504.5232" x2="525.4422" y1="136.4015" y2="134.918" /><line stroke="black" stroke-opacity="1.0" stroke-width="0.5" x1="466.7548" x2="501.2214" y1="220.2818" y2="198.151" /><line stroke="black" stroke-opacity="1.0" stroke-width="0.5" x1="501.2214" x2="516.9312" y1="198.151" y2="169.3944" /><line stroke="black" stroke-opacity="1.0" stroke-width="0.5" x1="516.9312" x2="516.9312" y1="169.3944" y2="143.18" /><line stroke="black" stroke-opacity="1.0" stroke-width="0.5" x1="516.9312" x2="506.877" y1="143.18" y2="124.7758" /><line stroke="black" stroke-opacity="1.0" stroke-width="0.5" x1="516.9312" x2="526.9855" y1="143.18" y2="124.7758" /><line stroke="black" stroke-opacity="1.0" stroke-width="0.5" x1="516.9312" x2="538.9899" y1="169.3944" y2="155.2307" /><line stroke="black" stroke-opacity="1.0" stroke-width="0.5" x1="538.9899" x2="549.0442" y1="155.2307" y2="136.8265" /><line stroke="black" stroke-opacity="1.0" stroke-width="0.5" x1="538.9899" x2="559.9089" y1="155.2307" y2="153.7472" /><line stroke="black" stroke-opacity="1.0" stroke-width="0.5" x1="501.2214" x2="533.9073" y1="198.151" y2="195.8331" /><line stroke="black" stroke-opacity="1.0" stroke-width="0.5" x1="533.9073" x2="555.966" y1="195.8331" y2="181.6694" /><line stroke="black" stroke-opacity="1.0" stroke-width="0.5" x1="555.966" x2="566.0203" y1="181.6694" y2="163.2652" /><line stroke="black" stroke-opacity="1.0" stroke-width="0.5" x1="555.966" x2="576.885" y1="181.6694" y2="180.186" /><line stroke="black" stroke-opacity="1.0" stroke-width="0.5" x1="533.9073" x2="557.744" y1="195.8331" y2="206.7422" /><line stroke="black" stroke-opacity="1.0" stroke-width="0.5" x1="557.744" x2="578.663" y1="206.7422" y2="205.2587" /><line stroke="black" stroke-opacity="1.0" stroke-width="0.5" x1="557.744" x2="570.2949" y1="206.7422" y2="223.5434" /><line stroke="black" stroke-opacity="1.0" stroke-width="0.5" x1="442.2082" x2="493.2799" y1="265.214" y2="261.5923" /><line stroke="black" stroke-opacity="1.0" stroke-width="0.5" x1="493.2799" x2="527.7466" y1="261.5923" y2="239.4615" /><line stroke="black" stroke-opacity="1.0" stroke-width="0.5" x1="527.7466" x2="543.4564" y1="239.4615" y2="210.7049" /><line stroke="black" stroke-opacity="1.0" stroke-width="0.5" x1="543.4564" x2="543.4564" y1="210.7049" y2="184.4905" /><line stroke="black" stroke-opacity="1.0" stroke-width="0.5" x1="543.4564" x2="533.4021" y1="184.4905" y2="166.0863" /><line stroke="black" stroke-opacity="1.0" stroke-width="0.5" x1="543.4564" x2="553.5107" y1="184.4905" y2="166.0863" /><line stroke="black" stroke-opacity="1.0" stroke-width="0.5" x1="543.4564" x2="565.5151" y1="210.7049" y2="196.5412" /><line stroke="black" stroke-opacity="1.0" stroke-width="0.5" x1="565.5151" x2="575.5693" y1="196.5412" y2="178.137" /><line stroke="black" stroke-opacity="1.0" stroke-width="0.5" x1="565.5151" x2="586.434" y1="196.5412" y2="195.0577" /><line stroke="black" stroke-opacity="1.0" stroke-width="0.5" x1="527.7466" x2="560.4325" y1="239.4615" y2="237.1436" /><line stroke="black" stroke-opacity="1.0" stroke-width="0.5" x1="560.4325" x2="582.4912" y1="237.1436" y2="222.9799" /><line stroke="black" stroke-opacity="1.0" stroke-width="0.5" x1="582.4912" x2="592.5454" y1="222.9799" y2="204.5757" /><line stroke="black" stroke-opacity="1.0" stroke-width="0.5" x1="582.4912" x2="603.4101" y1="222.9799" y2="221.4964" /><line stroke="black" stroke-opacity="1.0" stroke-width="0.5" x1="560.4325" x2="584.2692" y1="237.1436" y2="248.0526" /><line stroke="black" stroke-opacity="1.0" stroke-width="0.5" x1="584.2692" x2="605.1882" y1="248.0526" y2="246.5692" /><line stroke="black" stroke-opacity="1.0" stroke-width="0.5" x1="584.2692" x2="596.8201" y1="248.0526" y2="264.8538" /><line stroke="black" stroke-opacity="1.0" stroke-width="0.5" x1="493.2799" x2="530.5248" y1="261.5923" y2="278.6377" /><line stroke="black" stroke-opacity="1.0" stroke-width="0.5" x1="530.5248" x2="563.2107" y1="278.6377" y2="276.3198" /><line stroke="black" stroke-opacity="1.0" stroke-width="0.5" x1="563.2107" x2="585.2693" y1="276.3198" y2="262.1561" /><line stroke="black" stroke-opacity="1.0" stroke-width="0.5" x1="585.2693" x2="595.3236" y1="262.1561" y2="243.7518" /><line stroke="black" stroke-opacity="1.0" stroke-width="0.5" x1="585.2693" x2="606.1883" y1="262.1561" y2="260.6726" /><line stroke="black" stroke-opacity="1.0" stroke-width="0.5" x1="563.2107" x2="587.0474" y1="276.3198" y2="287.2288" /><line stroke="black" stroke-opacity="1.0" stroke-width="0.5" x1="587.0474" x2="607.9663" y1="287.2288" y2="285.7453" /><line stroke="black" stroke-opacity="1.0" stroke-width="0.5" x1="587.0474" x2="599.5982" y1="287.2288" y2="304.03" /><line stroke="black" stroke-opacity="1.0" stroke-width="0.5" x1="530.5248" x2="550.1355" y1="278.6377" y2="304.8896" /><line stroke="black" stroke-opacity="1.0" stroke-width="0.5" x1="550.1355" x2="573.9722" y1="304.8896" y2="315.7986" /><line stroke="black" stroke-opacity="1.0" stroke-width="0.5" x1="573.9722" x2="594.8912" y1="315.7986" y2="314.3151" /><line stroke="black" stroke-opacity="1.0" stroke-width="0.5" x1="573.9722" x2="586.523" y1="315.7986" y2="332.5998" /><line stroke="black" stroke-opacity="1.0" stroke-width="0.5" x1="550.1355" x2="553.8349" y1="304.8896" y2="330.8416" /><line stroke="black" stroke-opacity="1.0" stroke-width="0.5" x1="553.8349" x2="566.3857" y1="330.8416" y2="347.6428" /><line stroke="black" stroke-opacity="1.0" stroke-width="0.5" x1="553.8349" x2="546.4784" y1="330.8416" y2="350.4805" /></svg>