<?xml version="1.0" encoding="utf-8" ?>
<svg baseProfile="tiny" height="500" version="1.2" width="700" xmlns="http://www.w3.org/2000/svg" xmlns:ev="http://www.w3.org/2001/xml-events" xmlns:xlink="http://www.w3.org/1999/xlink"><defs /><line stroke="black" stroke-opacity="1.0" stroke-width="0.5" x1="350.0" x2="350.0" y1="470.0" y2="370.0" /><line stroke="black" stroke-opacity="1.0" stroke-width="0.5" x1="350.0" x2="311.646" y1="370.0" y2="299.7934" /><line stroke="black" stroke-opacity="1.0" stroke-width="0.5" x1="311.646" x2="257.7918" y1="299.7934" y2="265.214" /><line stroke="black" stroke-opacity="1.0" stroke-width="0.5" x1="257.7918" x2="206.7201" y1="265.214" y2="261.5923" /><line stroke="black" stroke-opacity="1.0" stroke-width="0.5" x1="206.7201" x2="169.4752" y1="261.5923" y2="278.6377" /><line stroke="black" stroke-opacity="1.0" stroke-width="0.5" x1="169.4752" x2="149.8645" y1="278.6377" y2="304.8896" /><line stroke="black" stroke-opacity="1.0" stroke-width="0.5" x1="169.4752" x2="136.7893" y1="278.6377" y2="276.3198" /><line stroke="black" stroke-opacity="1.0" stroke-width="0.5" x1="206.7201" x2="172.2534" y1="261.5923" y2="239.4615" /><line stroke="black" stroke-opacity="1.0" stroke-width="0.5" x1="172.2534" x2="139.5675" y1="239.4615" y2="237.1436" /><line stroke="black" stroke-opacity="1.0" stroke-width="0.5" x1="172.2534" x2="156.5436" y1="239.4615" y2="210.7049" /><line stroke="black" stroke-opacity="1.0" stroke-width="0.5" x1="257.7918" x2="233.2452" y1="265.214" y2="220.2818" /><line stroke="black" stroke-opacity="1.0" stroke-width="0.5" x1="233.2452" x2="198.7786" y1="220.2818" y2="198.151" /><line stroke="black" stroke-opacity="1.0" stroke-width="0.5" x1="198.7786" x2="166.0927" y1="198.151" y2="195.8331" /><line stroke="black" stroke-opacity="1.0" stroke-width="0.5" x1="198.7786" x2="183.0688" y1="198.151" y2="169.3944" /><line stroke="black" stroke-opacity="1.0" stroke-width="0.5" x1="233.2452" x2="233.2452" y1="220.2818" y2="179.3218" /><line stroke="black" stroke-opacity="1.0" stroke-width="0.5" x1="233.2452" x2="217.5354" y1="179.3218" y2="150.5652" /><line stroke="black" stroke-opacity="1.0" stroke-width="0.5" x1="233.2452" x2="248.955" y1="179.3218" y2="150.5652" /><line stroke="black" stroke-opacity="1.0" stroke-width="0.5" x1="311.646" x2="311.646" y1="299.7934" y2="235.7934" /><line stroke="black" stroke-opacity="1.0" stroke-width="0.5" x1="311.646" x2="287.0994" y1="235.7934" y2="190.8612" /><line stroke="black" stroke-opacity="1.0" stroke-width="0.5" x1="287.0994" x2="252.6327" y1="190.8612" y2="168.7304" /><line stroke="black" stroke-opacity="1.0" stroke-width="0.5" x1="252.6327" x2="219.9468" y1="168.7304" y2="166.4125" /><line stroke="black" stroke-opacity="1.0" stroke-width="0.5" x1="252.6327" x2="236.9229" y1="168.7304" y2="139.9738" /><line stroke="black" stroke-opacity="1.0" stroke-width="0.5" x1="287.0994" x2="287.0994" y1="190.8612" y2="149.9012" /><line stroke="black" stroke-opacity="1.0" stroke-width="0.5" x1="287.0994" x2="271.3896" y1="149.9012" y2="121.1445" /><line stroke="black" stroke-opacity="1.0" stroke-width="0.5" x1="287.0994" x2="302.8092" y1="149.9012" y2="121.1445" /><line stroke="black" stroke-opacity="1.0" stroke-width="0.5" x1="311.646" x2="336.1925" y1="235.7934" y2="190.8612" /><line stroke="black" stroke-opacity="1.0" stroke-width="0.5" x1="336.1925" x2="336.1925" y1="190.8612" y2="149.9012" /><line stroke="black" stroke-opacity="1.0" stroke-width="0.5" x1="336.1925" x2="320.4827" y1="149.9012" y2="121.1445" /><line stroke="black" stroke-opacity="1.0" stroke-width="0.5" x1="336.1925" x2="351.9024" y1="149.9012" y2="121.1445" /><line stroke="black" stroke-opacity="1.0" stroke-width="0.5" x1="336.1925" x2="370.6592" y1="190.8612" y2="168.7304" /><line stroke="black" stroke-opacity="1.0" stroke-width="0.5" x1="370.6592" x2="386.369" y1="168.7304" y2="139.9738" /><line stroke="black" stroke-opacity="1.0" stroke-width="0.5" x1="370.6592" x2="403.3451" y1="168.7304" y2="166.4125" /><line stroke="black" stroke-opacity="1.0" stroke-width="0.5" x1="350.0" x2="388.354" y1="370.0" y2="299.7934" /><line stroke="black" stroke-opacity="1.0" stroke-width="0.5" x1="388.354" x2="388.354" y1="299.7934" y2="235.7934" /><line stroke="black" stroke-opacity="1.0" stroke-width="0.5" x1="388.354" x2="363.8075" y1="235.7934" y2="190.8612" /><line stroke="black" stroke-opacity="1.0" stroke-width="0.5" x1="363.8075" x2="329.3408" y1="190.8612" y2="168.7304" /><line stroke="black" stroke-opacity="1.0" stroke-width="0.5" x1="329.3408" x2="296.6549" y1="168.7304" y2="166.4125" /><line stroke="black" stroke-opacity="1.0" stroke-width="0.5" x1="329.3408" x2="313.631" y1="168.7304" y2="139.9738" /><line stroke="black" stroke-opacity="1.0" stroke-width="0.5" x1="363.8075" x2="363.8075" y1="190.8612" y2="149.9012" /><line stroke="black" stroke-opacity="1.0" stroke-width="0.5" x1="363.8075" x2="348.0976" y1="149.9012" y2="121.1445" /><line stroke="black" stroke-opacity="1.0" stroke-width="0.5" x1="363.8075" x2="379.5173" y1="149.9012" y2="121.1445" /><line stroke="black" stroke-opacity="1.0" stroke-width="0.5" x1="388.354" x2="412.9006" y1="235.7934" y2="190.8612" /><line stroke="black" stroke-opacity="1.0" stroke-width="0.5" x1="412.9006" x2="412.9006" y1="190.8612" y2="149.9012" /><line stroke="black" stroke-opacity="1.0" stroke-width="0.5" x1="412.9006" x2="397.1908" y1="149.9012" y2="121.1445" /><line stroke="black" stroke-opacity="1.0" stroke-width="0.5" x1="412.9006" x2="428.6104" y1="149.9012" y2="121.1445" /><line stroke="black" stroke-opacity="1.0" stroke-width="0.5" x1="412.9006" x2="447.3673" y1="190.8612" y2="168.7304" /><line stroke="black" stroke-opacity="1.0" stroke-width="0.5" x1="447.3673" x2="463.0771" y1="168.7304" y2="139.9738" /><line stroke="black" stroke-opacity="1.0" stroke-width="0.5" x1="447.3673" x2="480.0532" y1="168.7304" y2="166.4125" /><line stroke="black" stroke-opacity="1.0" stroke-width="0.5" x1="388.354" x2="442.2082" y1="299.7934" y2="265.214" /><line stroke="black" stroke-opacity="1.0" stroke-width="0.5" x1="442.2082" x2="466.7548" y1="265.214" y2="220.2818" /><line stroke="black" stroke-opacity="1.0" stroke-width="0.5" x1="466.7548" x2="466.7548" y1="220.2818" y2="179.3218" /><line stroke="black" stroke-opacity="1.0" stroke-width="0.5" x1="466.7548" x2="451.045" y1="179.3218" y2="150.5652" /><line stroke="black" stroke-opacity="1.0" stroke-width="0.5" x1="466.7548" x2="482.4646" y1="179.3218" y2="150.5652" /><line stroke="black" stroke-opacity="1.0" stroke-width="0.5" x1="466.7548" x2="501.2214" y1="220.2818" y2="198.151" /><line stroke="black" stroke-opacity="1.0" stroke-width="0.5" x1="501.2214" x2="516.9312" y1="198.151" y2="169.3944" /><line stroke="black" stroke-opacity="1.0" stroke-width="0.5" x1="501.2214" x2="533.9073" y1="198.151" y2="195.8331" /><line stroke="black" stroke-opacity="1.0" stroke-width="0.5" x1="442.2082" x2="493.2799" y1="265.214" y2="261.5923" /><line stroke="black" stroke-opacity="1.0" stroke-width="0.5" x1="493.2799" x2="527.7466" y1="261.5923" y2="239.4615" /><line stroke="black" stroke-opacity="1.0" stroke-width="0.5" x1="527.7466" x2="543.4564" y1="239.4615" y2="210.7049" /><line stroke="black" stroke-opacity="1.0" stroke-width="0.5" x1="527.7466" x2="560.4325" y1="239.4615" y2="237.1436" /><line stroke="black" stroke-opacity="1.0" stroke-width="0.5" x1="493.2799" x2="530.5248" y1="261.5923" y2="278.6377" /><line stroke="black" stroke-opacity="1.0" stroke-width="0.5" x1="530.5248" x2="563.2107" y1="278.6377" y2="276.3198" /><line stroke="black" stroke-opacity="1.0" stroke-width="0.5" x1="530.5248" x2="550.1355" y1="278.6377" y2="304.8896" /></svg>