<?xml version="1.0" encoding="utf-8" ?>
<svg baseProfile="tiny" height="500" version="1.2" width="700" xmlns="http://www.w3.org/2000/svg" xmlns:ev="http://www.w3.org/2001/xml-events" xmlns:xlink="http://www.w3.org/1999/xlink"><defs /><line stroke="black" stroke-opacity="1.0" stroke-width="0.5" x1="350.0" x2="350.0" y1="470.0" y2="370.0" /><line stroke="black" stroke-opacity="1.0" stroke-width="0.5" x1="350.0" x2="311.646" y1="370.0" y2="299.7934" /><line stroke="black" stroke-opacity="1.0" stroke-width="0.5" x1="311.646" x2="257.7918" y1="299.7934" y2="265.214" /><line stroke="black" stroke-opacity="1.0" stroke-width="0.5" x1="257.7918" x2="206.7201" y1="265.214" y2="261.5923" /><line stroke="black" stroke-opacity="1.0" stroke-width="0.5" x1="206.7201" x2="169.4752" y1="261.5923" y2="278.6377" /><line stroke="black" stroke-opacity="1.0" stroke-width="0.5" x1="169.4752" x2="149.8645" y1="278.6377" y2="304.8896" /><line stroke="black" stroke-opacity="1.0" stroke-width="0.5" x1="149.8645" x2="146.1651" y1="304.8896" y2="330.8416" /><line stroke="black" stroke-opacity="1.0" stroke-width="0.5" x1="149.8645" x2="126.0278" y1="304.8896" y2="315.7986" /><line stroke="black" stroke-opacity="1.0" stroke-width="0.5" x1="169.4752" x2="136.7893" y1="278.6377" y2="276.3198" /><line stroke="black" stroke-opacity="1.0" stroke-width="0.5" x1="136.7893" x2="112.9526" y1="276.3198" y2="287.2288" /><line stroke="black" stroke-opacity="1.0" stroke-width="0.5" x1="136.7893" x2="114.7307" y1="276.3198" y2="262.1561" /><line stroke="black" stroke-opacity="1.0" stroke-width="0.5" x1="206.7201" x2="172.2534" y1="261.5923" y2="239.4615" /><line stroke="black" stroke-opacity="1.0" stroke-width="0.5" x1="172.2534" x2="139.5675" y1="239.4615" y2="237.1436" /><line stroke="black" stroke-opacity="1.0" stroke-width="0.5" x1="139.5675" x2="115.7308" y1="237.1436" y2="248.0526" /><line stroke="black" stroke-opacity="1.0" stroke-width="0.5" x1="139.5675" x2="117.5088" y1="237.1436" y2="222.9799" /><line stroke="black" stroke-opacity="1.0" stroke-width="0.5" x1="172.2534" x2="156.5436" y1="239.4615" y2="210.7049" /><line stroke="black" stroke-opacity="1.0" stroke-width="0.5" x1="156.5436" x2="134.4849" y1="210.7049" y2="196.5412" /><line stroke="black" stroke-opacity="1.0" stroke-width="0.5" x1="156.5436" x2="156.5436" y1="210.7049" y2="184.4905" /><line stroke="black" stroke-opacity="1.0" stroke-width="0.5" x1="257.7918" x2="233.2452" y1="265.214" y2="220.2818" /><line stroke="black" stroke-opacity="1.0" stroke-width="0.5" x1="233.2452" x2="198.7786" y1="220.2818" y2="198.151" /><line stroke="black" stroke-opacity="1.0" stroke-width="0.5" x1="198.7786" x2="166.0927" y1="198.151" y2="195.8331" /><line stroke="black" stroke-opacity="1.0" stroke-width="0.5" x1="166.0927" x2="142.256" y1="195.8331" y2="206.7422" /><line stroke="black" stroke-opacity="1.0" stroke-width="0.5" x1="166.0927" x2="144.034" y1="195.8331" y2="181.6694" /><line stroke="black" stroke-opacity="1.0" stroke-width="0.5" x1="198.7786" x2="183.0688" y1="198.151" y2="169.3944" /><line stroke="black" stroke-opacity="1.0" stroke-width="0.5" x1="183.0688" x2="161.0101" y1="169.3944" y2="155.2307" /><line stroke="black" stroke-opacity="1.0" stroke-width="0.5" x1="183.0688" x2="183.0688" y1="169.3944" y2="143.18" /><line stroke="black" stroke-opacity="1.0" stroke-width="0.5" x1="233.2452" x2="233.2452" y1="220.2818" y2="179.3218" /><line stroke="black" stroke-opacity="1.0" stroke-width="0.5" x1="233.2452" x2="217.5354" y1="179.3218" y2="150.5652" /><line stroke="black" stroke-opacity="1.0" stroke-width="0.5" x1="217.5354" x2="195.4768" y1="150.5652" y2="136.4015" /><line stroke="black" stroke-opacity="1.0" stroke-width="0.5" x1="217.5354" x2="217.5354" y1="150.5652" y2="124.3508" /><line stroke="black" stroke-opacity="1.0" stroke-width="0.5" x1="233.2452" x2="248.955" y1="179.3218" y2="150.5652" /><line stroke="black" stroke-opacity="1.0" stroke-width="0.5" x1="248.955" x2="248.955" y1="150.5652" y2="124.3508" /><line stroke="black" stroke-opacity="1.0" stroke-width="0.5" x1="248.955" x2="271.0137" y1="150.5652" y2="136.4015" /><line stroke="black" stroke-opacity="1.0" stroke-width="0.5" x1="311.646" x2="311.646" y1="299.7934" y2="235.7934" /><line stroke="black" stroke-opacity="1.0" stroke-width="0.5" x1="311.646" x2="287.0994" y1="235.7934" y2="190.8612" /><line stroke="black" stroke-opacity="1.0" stroke-width="0.5" x1="287.0994" x2="252.6327" y1="190.8612" y2="168.7304" /><line stroke="black" stroke-opacity="1.0" stroke-width="0.5" x1="252.6327" x2="219.9468" y1="168.7304" y2="166.4125" /><line stroke="black" stroke-opacity="1.0" stroke-width="0.5" x1="219.9468" x2="196.1101" y1="166.4125" y2="177.3215" /><line stroke="black" stroke-opacity="1.0" stroke-width="0.5" x1="219.9468" x2="197.8881" y1="166.4125" y2="152.2488" /><line stroke="black" stroke-opacity="1.0" stroke-width="0.5" x1="252.6327" x2="236.9229" y1="168.7304" y2="139.9738" /><line stroke="black" stroke-opacity="1.0" stroke-width="0.5" x1="236.9229" x2="214.8642" y1="139.9738" y2="125.8101" /><line stroke="black" stroke-opacity="1.0" stroke-width="0.5" x1="236.9229" x2="236.9229" y1="139.9738" y2="113.7594" /><line stroke="black" stroke-opacity="1.0" stroke-width="0.5" x1="287.0994" x2="287.0994" y1="190.8612" y2="149.9012" /><line stroke="black" stroke-opacity="1.0" stroke-width="0.5" x1="287.0994" x2="271.3896" y1="149.9012" y2="121.1445" /><line stroke="black" stroke-opacity="1.0" stroke-width="0.5" x1="271.3896" x2="249.3309" y1="121.1445" y2="106.9808" /><line stroke="black" stroke-opacity="1.0" stroke-width="0.5" x1="271.3896" x2="271.3896" y1="121.1445" y2="94.9301" /><line stroke="black" stroke-opacity="1.0" stroke-width="0.5" x1="287.0994" x2="302.8092" y1="149.9012" y2="121.1445" /><line stroke="black" stroke-opacity="1.0" stroke-width="0.5" x1="302.8092" x2="302.8092" y1="121.1445" y2="94.9301" /><line stroke="black" stroke-opacity="1.0" stroke-width="0.5" x1="302.8092" x2="324.8678" y1="121.1445" y2="106.9808" /><line stroke="black" stroke-opacity="1.0" stroke-width="0.5" x1="311.646" x2="336.1925" y1="235.7934" y2="190.8612" /><line stroke="black" stroke-opacity="1.0" stroke-width="0.5" x1="336.1925" x2="336.1925" y1="190.8612" y2="149.9012" /><line stroke="black" stroke-opacity="1.0" stroke-width="0.5" x1="336.1925" x2="320.4827" y1="149.9012" y2="121.1445" /><line stroke="black" stroke-opacity="1.0" stroke-width="0.5" x1="320.4827" x2="298.4241" y1="121.1445" y2="106.9808" /><line stroke="black" stroke-opacity="1.0" stroke-width="0.5" x1="320.4827" x2="320.4827" y1="121.1445" y2="94.9301" /><line stroke="black" stroke-opacity="1.0" stroke-width="0.5" x1="336.1925" x2="351.9024" y1="149.9012" y2="121.1445" /><line stroke="black" stroke-opacity="1.0" stroke-width="0.5" x1="351.9024" x2="351.9024" y1="121.1445" y2="94.9301" /><line stroke="black" stroke-opacity="1.0" stroke-width="0.5" x1="351.9024" x2="373.961" y1="121.1445" y2="106.9808" /><line stroke="black" stroke-opacity="1.0" stroke-width="0.5" x1="336.1925" x2="370.6592" y1="190.8612" y2="168.7304" /><line stroke="black" stroke-opacity="1.0" stroke-width="0.5" x1="370.6592" x2="386.369" y1="168.7304" y2="139.9738" /><line stroke="black" stroke-opacity="1.0" stroke-width="0.5" x1="386.369" x2="386.369" y1="139.9738" y2="113.7594" /><line stroke="black" stroke-opacity="1.0" stroke-width="0.5" x1="386.369" x2="408.4277" y1="139.9738" y2="125.8101" /><line stroke="black" stroke-opacity="1.0" stroke-width="0.5" x1="370.6592" x2="403.3451" y1="168.7304" y2="166.4125" /><line stroke="black" stroke-opacity="1.0" stroke-width="0.5" x1="403.3451" x2="425.4038" y1="166.4125" y2="152.2488" /><line stroke="black" stroke-opacity="1.0" stroke-width="0.5" x1="403.3451" x2="427.1818" y1="166.4125" y2="177.3215" /><line stroke="black" stroke-opacity="1.0" stroke-width="0.5" x1="350.0" x2="388.354" y1="370.0" y2="299.7934" /><line stroke="black" stroke-opacity="1.0" stroke-width="0.5" x1="388.354" x2="388.354" y1="299.7934" y2="235.7934" /><line stroke="black" stroke-opacity="1.0" stroke-width="0.5" x1="388.354" x2="363.8075" y1="235.7934" y2="190.8612" /><line stroke="black" stroke-opacity="1.0" stroke-width="0.5" x1="363.8075" x2="329.3408" y1="190.8612" y2="168.7304" /><line stroke="black" stroke-opacity="1.0" stroke-width="0.5" x1="329.3408" x2="296.6549" y1="168.7304" y2="166.4125" /><line stroke="black" stroke-opacity="1.0" stroke-width="0.5" x1="296.6549" x2="272.8182" y1="166.4125" y2="177.3215" /><line stroke="black" stroke-opacity="1.0" stroke-width="0.5" x1="296.6549" x2="274.5962" y1="166.4125" y2="152.2488" /><line stroke="black" stroke-opacity="1.0" stroke-width="0.5" x1="329.3408" x2="313.631" y1="168.7304" y2="139.9738" /><line stroke="black" stroke-opacity="1.0" stroke-width="0.5" x1="313.631" x2="291.5723" y1="139.9738" y2="125.8101" /><line stroke="black" stroke-opacity="1.0" stroke-width="0.5" x1="313.631" x2="313.631" y1="139.9738" y2="113.7594" /><line stroke="black" stroke-opacity="1.0" stroke-width="0.5" x1="363.8075" x2="363.8075" y1="190.8612" y2="149.9012" /><line stroke="black" stroke-opacity="1.0" stroke-width="0.5" x1="363.8075" x2="348.0976" y1="149.9012" y2="121.1445" /><line stroke="black" stroke-opacity="1.0" stroke-width="0.5" x1="348.0976" x2="326.039" y1="121.1445" y2="106.9808" /><line stroke="black" stroke-opacity="1.0" stroke-width="0.5" x1="348.0976" x2="348.0976" y1="121.1445" y2="94.9301" /><line stroke="black" stroke-opacity="1.0" stroke-width="0.5" x1="363.8075" x2="379.5173" y1="149.9012" y2="121.1445" /><line stroke="black" stroke-opacity="1.0" stroke-width="0.5" x1="379.5173" x2="379.5173" y1="121.1445" y2="94.9301" /><line stroke="black" stroke-opacity="1.0" stroke-width="0.5" x1="379.5173" x2="401.5759" y1="121.1445" y2="106.9808" /><line stroke="black" stroke-opacity="1.0" stroke-width="0.5" x1="388.354" x2="412.9006" y1="235.7934" y2="190.8612" /><line stroke="black" stroke-opacity="1.0" stroke-width="0.5" x1="412.9006" x2="412.9006" y1="190.8612" y2="149.9012" /><line stroke="black" stroke-opacity="1.0" stroke-width="0.5" x1="412.9006" x2="397.1908" y1="149.9012" y2="121.1445" /><line stroke="black" stroke-opacity="1.0" stroke-width="0.5" x1="397.1908" x2="375.1322" y1="121.1445" y2="106.9808" /><line stroke="black" stroke-opacity="1.0" stroke-width="0.5" x1="397.1908" x2="397.1908" y1="121.1445" y2="94.9301" /><line stroke="black" stroke-opacity="1.0" stroke-width="0.5" x1="412.9006" x2="428.6104" y1="149.9012" y2="121.1445" /><line stroke="black" stroke-opacity="1.0" stroke-width="0.5" x1="428.6104" x2="428.6104" y1="121.1445" y2="94.9301" /><line stroke="black" stroke-opacity="1.0" stroke-width="0.5" x1="428.6104" x2="450.6691" y1="121.1445" y2="106.9808" /><line stroke="black" stroke-opacity="1.0" stroke-width="0.5" x1="412.9006" x2="447.3673" y1="190.8612" y2="168.7304" /><line stroke="black" stroke-opacity="1.0" stroke-width="0.5" x1="447.3673" x2="463.0771" y1="168.7304" y2="139.9738" /><line stroke="black" stroke-opacity="1.0" stroke-width="0.5" x1="463.0771" x2="463.0771" y1="139.9738" y2="113.7594" /><line stroke="black" stroke-opacity="1.0" stroke-width="0.5" x1="463.0771" x2="485.1358" y1="139.9738" y2="125.8101" /><line stroke="black" stroke-opacity="1.0" stroke-width="0.5" x1="447.3673" x2="480.0532" y1="168.7304" y2="166.4125" /><line stroke="black" stroke-opacity="1.0" stroke-width="0.5" x1="480.0532" x2="502.1119" y1="166.4125" y2="152.2488" /><line stroke="black" stroke-opacity="1.0" stroke-width="0.5" x1="480.0532" x2="503.8899" y1="166.4125" y2="177.3215" /><line stroke="black" stroke-opacity="1.0" stroke-width="0.5" x1="388.354" x2="442.2082" y1="299.7934" y2="265.214" /><line stroke="black" stroke-opacity="1.0" stroke-width="0.5" x1="442.2082" x2="466.7548" y1="265.214" y2="220.2818" /><line stroke="black" stroke-opacity="1.0" stroke-width="0.5" x1="466.7548" x2="466.7548" y1="220.2818" y2="179.3218" /><line stroke="black" stroke-opacity="1.0" stroke-width="0.5" x1="466.7548" x2="451.045" y1="179.3218" y2="150.5652" /><line stroke="black" stroke-opacity="1.0" stroke-width="0.5" x1="451.045" x2="428.9863" y1="150.5652" y2="136.4015" /><line stroke="black" stroke-opacity="1.0" stroke-width="0.5" x1="451.045" x2="451.045" y1="150.5652" y2="124.3508" /><line stroke="black" stroke-opacity="1.0" stroke-width="0.5" x1="466.7548" x2="482.4646" y1="179.3218" y2="150.5652" /><line stroke="black" stroke-opacity="1.0" stroke-width="0.5" x1="482.4646" x2="482.4646" y1="150.5652" y2="124.3508" /><line stroke="black" stroke-opacity="1.0" stroke-width="0.5" x1="482.4646" x2="504.5232" y1="150.5652" y2="136.4015" /><line stroke="black" stroke-opacity="1.0" stroke-width="0.5" x1="466.7548" x2="501.2214" y1="220.2818" y2="198.151" /><line stroke="black" stroke-opacity="1.0" stroke-width="0.5" x1="501.2214" x2="516.9312" y1="198.151" y2="169.3944" /><line stroke="black" stroke-opacity="1.0" stroke-width="0.5" x1="516.9312" x2="516.9312" y1="169.3944" y2="143.18" /><line stroke="black" stroke-opacity="1.0" stroke-width="0.5" x1="516.9312" x2="538.9899" y1="169.3944" y2="155.2307" /><line stroke="black" stroke-opacity="1.0" stroke-width="0.5" x1="501.2214" x2="533.9073" y1="198.151" y2="195.8331" /><line stroke="black" stroke-opacity="1.0" stroke-width="0.5" x1="533.9073" x2="555.966" y1="195.8331" y2="181.6694" /><line stroke="black" stroke-opacity="1.0" stroke-width="0.5" x1="533.9073" x2="557.744" y1="195.8331" y2="206.7422" /><line stroke="black" stroke-opacity="1.0" stroke-width="0.5" x1="442.2082" x2="493.2799" y1="265.214" y2="261.5923" /><line stroke="black" stroke-opacity="1.0" stroke-width="0.5" x1="493.2799" x2="527.7466" y1="261.5923" y2="239.4615" /><line stroke="black" stroke-opacity="1.0" stroke-width="0.5" x1="527.7466" x2="543.4564" y1="239.4615" y2="210.7049" /><line stroke="black" stroke-opacity="1.0" stroke-width="0.5" x1="543.4564" x2="543.4564" y1="210.7049" y2="184.4905" /><line stroke="black" stroke-opacity="1.0" stroke-width="0.5" x1="543.4564" x2="565.5151" y1="210.7049" y2="196.5412" /><line stroke="black" stroke-opacity="1.0" stroke-width="0.5" x1="527.7466" x2="560.4325" y1="239.4615" y2="237.1436" /><line stroke="black" stroke-opacity="1.0" stroke-width="0.5" x1="560.4325" x2="582.4912" y1="237.1436" y2="222.9799" /><line stroke="black" stroke-opacity="1.0" stroke-width="0.5" x1="560.4325" x2="584.2692" y1="237.1436" y2="248.0526" /><line stroke="black" stroke-opacity="1.0" stroke-width="0.5" x1="493.2799" x2="530.5248" y1="261.5923" y2="278.6377" /><line stroke="black" stroke-opacity="1.0" stroke-width="0.5" x1="530.5248" x2="563.2107" y1="278.6377" y2="276.3198" /><line stroke="black" stroke-opacity="1.0" stroke-width="0.5" x1="563.2107" x2="585.2693" y1="276.3198" y2="262.1561" /><line stroke="black" stroke-opacity="1.0" stroke-width="0.5" x1="563.2107" x2="587.0474" y1="276.3198" y2="287.2288" /><line stroke="black" stroke-opacity="1.0" stroke-width="0.5" x1="530.5248" x2="550.1355" y1="278.6377" y2="304.8896" /><line stroke="black" stroke-opacity="1.0" stroke-width="0.5" x1="550.1355" x2="573.9722" y1="304.8896" y2="315.7986" /><line stroke="black" stroke-opacity="1.0" stroke-width="0.5" x1="550.1355" x2="553.8349" y1="304.8896" y2="330.8416" /></svg>